<svg xmlns="http://www.w3.org/2000/svg" width="24" height="24" viewBox="0 0 24 24">
    <g fill="none" fill-rule="evenodd">
        <g fill="#1054DB" fill-rule="nonzero">
            <g>
                <g>
                    <g>
                        <g>
                            <path d="M7.104 13.764c1.632 0 2.95 1.273 3.043 2.892l.005.181v4.091c0 1.632-1.26 2.973-2.868 3.067l-.18.005H3.048c-1.62 0-2.95-1.283-3.043-2.892L0 20.928v-4.09c0-1.644 1.272-2.976 2.87-3.069l.178-.005h4.056zm13.848 0c1.68 0 3.048 1.37 3.048 3.073v4.091C24 22.62 22.632 24 20.952 24h-4.056c-1.692 0-3.048-1.38-3.048-3.072v-4.09c0-1.705 1.356-3.074 3.048-3.074zM7.104 0c1.632 0 2.95 1.283 3.043 2.893l.005.18v4.091c0 1.643-1.26 2.974-2.868 3.067l-.18.005H3.048c-1.62 0-2.95-1.272-3.043-2.89L0 7.163v-4.09C0 1.44 1.272.098 2.87.004L3.047 0h4.056zm9.792 0h4.056c1.62 0 2.95 1.283 3.043 2.893l.005.18v4.091c0 1.643-1.272 2.974-2.869 3.067l-.179.005h-4.056c-1.631 0-2.95-1.272-3.043-2.89l-.005-.182v-4.09c0-1.634 1.261-2.975 2.868-3.069l.18-.005h4.056z" transform="translate(-51 -588) translate(0 576) translate(41 12) translate(10)"/>
                        </g>
                    </g>
                </g>
            </g>
        </g>
    </g>
</svg>
