<svg xmlns="http://www.w3.org/2000/svg" width="24" height="24" viewBox="0 0 24 24">
    <g fill="none" fill-rule="evenodd">
        <g fill="#28293C" fill-rule="nonzero">
            <g>
                <g>
                    <g>
                        <g>
                            <path d="M12.07 0c4.984.037 9.428 3.142 11.171 7.805 1.743 4.663.421 9.917-3.321 13.204-3.743 3.288-9.128 3.927-13.539 1.609l-.055-.02c-.008-.005-.01-.009-.011-.015l-.82-.463c-.166-.068-.351-.08-.464-.05-.851.305-1.721.557-2.605.752l-.162.02c-.973.02-1.463-.61-1.463-1.529l.024-.197c.22-.913.497-1.812.813-2.645.048-.157.032-.328-.052-.486l-.22-.43c-1.95-3.728-1.804-8.203.387-11.795C3.943 2.168 7.856-.017 12.07 0zM6.74 10.631c.755 0 1.369.613 1.369 1.37 0 .755-.614 1.368-1.37 1.368-.756 0-1.37-.613-1.37-1.369s.614-1.369 1.37-1.369zm5.323 0c.757 0 1.37.613 1.37 1.37 0 .755-.613 1.368-1.37 1.368-.756 0-1.37-.613-1.37-1.369s.614-1.369 1.37-1.369zm5.325 0c.756 0 1.37.613 1.37 1.37 0 .755-.614 1.368-1.37 1.368-.756 0-1.37-.613-1.37-1.369s.614-1.369 1.37-1.369zM2.565 21.07l.474-.124c.325-.09.652-.189.984-.298l.503-.173c.53-.146 1.094-.112 1.65.117.117.056.262.134.444.237l.507.291.022.006-.015-.002.345.173c3.63 1.753 7.956 1.238 11.071-1.32l.265-.225c3.22-2.828 4.357-7.348 2.858-11.36-1.5-4.013-5.325-6.685-9.615-6.717l-.337.005c-3.495.1-6.713 1.958-8.539 4.953-1.884 3.09-2.01 6.94-.33 10.153l.217.423c.289.54.35 1.174.152 1.806-.307.816-.564 1.65-.769 2.496l.113-.441z" transform="translate(-208 -588) translate(0 576) translate(41 12) translate(155) translate(12)"/>
                        </g>
                    </g>
                </g>
            </g>
        </g>
    </g>
</svg>
