<svg xmlns="http://www.w3.org/2000/svg" width="24" height="24" viewBox="0 0 24 24">
    <g fill="none" fill-rule="evenodd">
        <g fill="#28293C" fill-rule="nonzero">
            <g>
                <g>
                    <g>
                        <g>
                            <path d="M17.2 0C21.286 0 24 2.915 24 7.1v9.8c0 4.185-2.715 7.1-6.8 7.1H6.798C2.714 24 0 21.085 0 16.9V7.1C0 2.92 2.72 0 6.798 0zm0 1.8H6.799C3.744 1.8 1.8 3.886 1.8 7.1v9.8c0 3.218 1.938 5.3 4.998 5.3H17.2c3.061 0 5-2.082 5-5.3V7.1c0-3.218-1.939-5.3-5-5.3zm-5.213 8.552c.456 0 .832.339.892.778l.008.122v5.303c0 .497-.403.9-.9.9-.455 0-.832-.339-.892-.778l-.008-.122v-5.303c0-.497.403-.9.9-.9zM12 6.545c.497 0 .9.403.9.9 0 .456-.338.832-.778.892l-.134.008c-.497 0-.9-.403-.9-.9 0-.456.339-.832.778-.892l.134-.008z" transform="translate(-285 -588) translate(0 576) translate(41 12) translate(244)"/>
                        </g>
                    </g>
                </g>
            </g>
        </g>
    </g>
</svg>
