<svg xmlns="http://www.w3.org/2000/svg" width="26" height="26" viewBox="0 0 26 26">
    <g fill="none" fill-rule="evenodd" stroke-linecap="round" stroke-linejoin="round">
        <g stroke="#28293C" stroke-width="2">
            <g>
                <g>
                    <g>
                        <g>
                            <path d="M3.353 6.067c0-1.499 1.216-2.714 2.713-2.714h1.235c.715 0 1.403-.284 1.912-.789l.863-.864C11.133.638 12.85.633 13.913 1.69l.011.01.864.864c.508.505 1.195.789 1.912.789h1.233c1.499 0 2.715 1.215 2.715 2.714v1.232c0 .718.283 1.404.788 1.913l.864.864c1.062 1.057 1.068 2.775.01 3.838l-.01.01-.864.865c-.505.506-.788 1.195-.788 1.91v1.235c0 1.499-1.216 2.713-2.715 2.713H16.7c-.717 0-1.404.284-1.912.79l-.864.862c-1.056 1.064-2.774 1.068-3.838.011l-.01-.01-.863-.863c-.509-.506-1.197-.79-1.912-.79H6.066c-1.497 0-2.713-1.214-2.713-2.713v-1.235c0-.715-.284-1.404-.79-1.91l-.862-.864C.638 12.867.633 11.149 1.69 10.087l.01-.01.864-.865c.505-.509.79-1.195.79-1.913V6.067" transform="translate(-128 -587) translate(0 576) translate(41 12) translate(79) translate(9)"/>
                        </g>
                    </g>
                </g>
            </g>
        </g>
    </g>
</svg>
