<?xml version="1.0" standalone="no"?>
<!DOCTYPE svg PUBLIC "-//W3C//DTD SVG 20010904//EN"
 "http://www.w3.org/TR/2001/REC-SVG-20010904/DTD/svg10.dtd">
<svg version="1.0" xmlns="http://www.w3.org/2000/svg"
 width="26.000000pt" height="26.000000pt" viewBox="0 0 26.000000 26.000000"
 preserveAspectRatio="xMidYMid meet">

<g transform="translate(0.000000,26.000000) scale(0.100000,-0.100000)"
fill="#000000" stroke="none">
<path d="M80 230 c-23 -12 -41 -32 -53 -59 -18 -40 -18 -42 0 -82 13 -31 29
-46 60 -61 41 -19 43 -19 84 -2 31 14 46 29 61 61 19 41 19 43 2 83 -14 30
-30 47 -58 61 -47 22 -50 22 -96 -1z m84 -14 c31 -11 41 -21 51 -50 29 -84
-37 -150 -121 -121 -74 25 -76 144 -3 170 19 7 34 13 34 14 0 0 17 -5 39 -13z"/>
</g>
</svg>
