<?xml version="1.0" encoding="UTF-8"?>
<svg width="16px" height="10px" viewBox="0 0 16 10" version="1.1" xmlns="http://www.w3.org/2000/svg" xmlns:xlink="http://www.w3.org/1999/xlink">
    <!-- Generator: Sketch 63.1 (92452) - https://sketch.com -->
    <title>Shape</title>
    <desc>Created with Sketch.</desc>
    <g id="Design" stroke="none" stroke-width="1" fill="none" fill-rule="evenodd">
        <g id="81-mini-Essential-Icons" transform="translate(-381.000000, -144.000000)" fill="#141124" fill-rule="nonzero">
            <g id="icon-" transform="translate(365.000000, 125.000000)">
                <path d="M26.2196699,19.2196699 C26.5125631,18.9267767 26.9874369,18.9267767 27.2803301,19.2196699 L27.2803301,19.2196699 L31.2803301,23.2196699 C31.5732233,23.5125631 31.5732233,23.9874369 31.2803301,24.2803301 L31.2803301,24.2803301 L27.2803301,28.2803301 C26.9874369,28.5732233 26.5125631,28.5732233 26.2196699,28.2803301 C25.9267767,27.9874369 25.9267767,27.5125631 26.2196699,27.2196699 L26.2196699,27.2196699 L28.939,24.5 L16.75,24.5 C16.3703042,24.5 16.056509,24.2178461 16.0068466,23.8517706 L16,23.75 C16,23.3357864 16.3357864,23 16.75,23 L16.75,23 L28.939,23 L26.2196699,20.2803301 C25.9534034,20.0140635 25.9291973,19.5973998 26.1470518,19.3037883 Z" id="Shape"></path>
            </g>
        </g>
    </g>
</svg>