<?xml version="1.0" encoding="UTF-8"?>
<svg width="18px" height="18px" viewBox="0 0 18 18" version="1.1" xmlns="http://www.w3.org/2000/svg" xmlns:xlink="http://www.w3.org/1999/xlink">
    <!-- Generator: Sketch 63.1 (92452) - https://sketch.com -->
    <title>Fill 1033</title>
    <desc>Created with Sketch.</desc>
    <g id="Design" stroke="none" stroke-width="1" fill="none" fill-rule="evenodd">
        <g id="81-mini-Essential-Icons" transform="translate(-380.000000, -256.000000)" fill="#000000">
            <g id="icon-" transform="translate(365.000000, 241.000000)">
                <path d="M15,15.7954545 C15,15.3579545 15.3563636,15 15.7954545,15 L19.7727273,15 C20.2118182,15 20.5681818,15.3579545 20.5681818,15.7954545 C20.5681818,16.2329545 20.2118182,16.5909091 19.7727273,16.5909091 L17.7156818,16.5909091 L21.9260227,20.7988636 C22.2370455,21.1090909 22.2370455,21.6181818 21.9260227,21.9284091 C21.615,22.2386364 21.1122727,22.2386364 20.80125,21.9284091 L16.5909091,17.7125 L16.5909091,19.7727273 C16.5909091,20.2102273 16.2345455,20.5681818 15.7954545,20.5681818 C15.3563636,20.5681818 15,20.2102273 15,19.7727273 L15,15.7954545 Z M27.7272727,15 L31.7045455,15 C32.1436364,15 32.5,15.3579545 32.5,15.7954545 L32.5,19.7727273 C32.5,20.2102273 32.1436364,20.5681818 31.7045455,20.5681818 C31.2654545,20.5681818 30.9090909,20.2102273 30.9090909,19.7727273 L30.9090909,17.7125 L26.69875,21.9284091 C26.3877273,22.2386364 25.885,22.2386364 25.5739773,21.9284091 C25.2629545,21.6181818 25.2629545,21.1090909 25.5739773,20.7988636 L29.7843182,16.5909091 L27.7272727,16.5909091 C27.2881818,16.5909091 26.9318182,16.2329545 26.9318182,15.7954545 C26.9318182,15.3579545 27.2881818,15 27.7272727,15 Z M21.9260227,25.5715909 C22.2370455,25.8818182 22.2370455,26.3909091 21.9260227,26.7011364 L17.7156818,30.9090909 L19.7727273,30.9090909 C20.2118182,30.9090909 20.5681818,31.2670455 20.5681818,31.7045455 C20.5681818,32.1420455 20.2118182,32.5 19.7727273,32.5 L15.7954545,32.5 C15.3563636,32.5 15,32.1420455 15,31.7045455 L15,27.7272727 C15,27.2897727 15.3563636,26.9318182 15.7954545,26.9318182 C16.2345455,26.9318182 16.5909091,27.2897727 16.5909091,27.7272727 L16.5909091,29.7875 L20.80125,25.5715909 C21.1122727,25.2613636 21.615,25.2613636 21.9260227,25.5715909 Z M25.5739773,25.5715909 C25.885,25.2613636 26.3877273,25.2613636 26.69875,25.5715909 L30.9090909,29.7875 L30.9090909,27.7272727 C30.9090909,27.2897727 31.2654545,26.9318182 31.7045455,26.9318182 C32.1436364,26.9318182 32.5,27.2897727 32.5,27.7272727 L32.5,31.7045455 C32.5,32.1420455 32.1436364,32.5 31.7045455,32.5 L27.7272727,32.5 C27.2881818,32.5 26.9318182,32.1420455 26.9318182,31.7045455 C26.9318182,31.2670455 27.2881818,30.9090909 27.7272727,30.9090909 L29.7843182,30.9090909 L25.5739773,26.7011364 C25.2629545,26.3909091 25.2629545,25.8818182 25.5739773,25.5715909 L25.5739773,25.5715909 Z" id="Fill-1033"></path>
            </g>
        </g>
    </g>
</svg>