<svg xmlns="http://www.w3.org/2000/svg" width="366" height="68" viewBox="0 0 366 68">
  <metadata id="metadata8">
    image/svg+xml
  </metadata>
  <defs>
    <clipPath clipPathUnits="userSpaceOnUse" id="clipPath16">
      <path d="m-156 1237.09l595.28 0 0-841.89 -595.28 0 0 841.89z" id="path18"/>
    </clipPath>
  </defs>
  <title>
    background
  </title>
  <rect fill="none" id="canvas_background" height="70" width="368" y="-1" x="-1"/>
  <title>
    Layer 1
  </title>
  <g id="g10" transform="matrix(1.25,0,0,-1.25,0,1052.3625) ">
    <g id="g12">
      <g id="g14" clip-path="url(#clipPath16)">
        <g id="g20">
          <path fill="#274896" fill-rule="evenodd" d="m119.38 793.98c0-1.2-0.69-1.62-2.63-1.69l-1.39 0 -1.59 0c-1.87 0-2.43 0.7-2.43 1.69l0 1.62c0 0.92 0.63 1.7 2.49 1.7l1.53 0 1.39 0c1.94 0 2.64-0.5 2.64-1.7l0-1.62zm-2.15 4.94l-1.87 0 -1.8 0c-0.97 0-1.59-0.21-2.08-0.43 -0.07 0-0.07-0.07-0.14-0.07l0 0.14 0 0.35 -2 0 0-0.35 0-10.93 2 0 0 3.53c0.42-0.21 1.18-0.49 2.35-0.49l1.67 0 1.87 0c1.38 0 2.42 0.28 3.12 0.91 0.77 0.57 1.11 1.41 1.11 2.4l0 1.62c0 0.85-0.28 1.7-0.96 2.33 -0.69 0.64-1.73 0.99-3.26 0.99" id="path22"/>
        </g>
        <g id="g24">
          <path fill="#274896" fill-rule="evenodd" d="m95.88 798.92l11.92 0 0-0.35 0-1.27 -4.99 0 0-6.28 0-0.35 -1.94 0 0 6.63 -4.99 0 0 0.35 0 1.27z" id="path26"/>
        </g>
        <g id="g28">
          <path fill="#274896" fill-rule="evenodd" d="m92.7 793.06c0-0.49 0-0.7-1.59-0.78l-2.29 0 -3.95 0 0 2.04 3.95 0 2.29 0c1.59-0.07 1.59-0.21 1.59-0.7l0-0.56zm-1.11 2.89l-2.77 0 -3.95 0 0 2.97 -0.34 0 -1.32 0 -0.35 0 0-8.25 5.96 0 2.57 0c1.94 0 3.39 0.7 3.39 2.32l0 0.85c0 1.27-1.18 2.11-3.19 2.11" id="path30"/>
        </g>
        <g id="g32">
          <path fill="#274896" fill-rule="evenodd" d="m49.86 793.98c-0.07-1.2-0.76-1.62-2.7-1.69l-0.42 0 -0.62 0c-1.87 0-2.43 0.78-2.49 1.69l0 1.62c0 0.92 0.9 1.7 2.49 1.7l0.62 0 0.42 0c1.87 0 2.63-0.5 2.7-1.7l0-1.62zm-8.18 0c0-0.99-0.69-1.69-2.49-1.69l-0.63 0 -0.35 0c-1.94 0-2.7 0.49-2.77 1.69l0 1.62c0.07 1.2 0.83 1.7 2.71 1.7l0.42 0 0.63 0c1.87 0 2.42-0.71 2.49-1.7l0-1.62zm5.96 4.94l-0.9 0 -0.9 0c-0.9 0-1.59-0.21-2.01-0.43 -0.07 0-0.14-0.07-0.2-0.07l0 3.45 -1.94 0 0-3.45c-0.48 0.21-1.18 0.5-2.22 0.5l-0.9 0 -0.83 0c-1.53 0-2.56-0.35-3.26-0.99 -0.69-0.63-0.97-1.48-0.97-2.33l0-1.62c0-0.99 0.35-1.83 1.04-2.4 0.76-0.63 1.8-0.91 3.19-0.91l0.83 0 0.76 0c1.11 0 1.87 0.28 2.36 0.5l0-3.53 0.35 0 1.25 0 0.35 0 0 3.53c0.48-0.21 1.25-0.49 2.35-0.49l0.76 0 0.83 0c1.39 0 2.43 0.28 3.19 0.91 0.69 0.57 1.04 1.41 1.04 2.4l0 1.62c0 0.85-0.28 1.7-0.97 2.33 -0.69 0.64-1.73 0.99-3.19 0.99" id="path34"/>
        </g>
        <g id="g36">
          <path fill="#274896" fill-rule="evenodd" d="m69.89 798.92l10.88 0 0-8.25 -2.01 0 0 6.63 -6.93 0 0-3.46c0-0.98-0.35-1.83-0.97-2.4 -0.62-0.56-1.52-0.77-2.63-0.77l-0.69 0 0 0.35 0 1.27 0.35 0 0.34 0c1.18 0.07 1.59 0.35 1.66 1.55l0 5.08z" id="path38"/>
        </g>
        <g id="g40">
          <path fill="#274896" fill-rule="evenodd" d="m63.38 798.92l2.7 0 0-8.25 -2.08 0 0 6.55 -7.35-6.55 -2.7 0 0 8.25 0.28 0 1.32 0 0.34 0 0-6.7 7.49 6.7z" id="path42"/>
        </g>
        <g id="g44">
          <path fill="#274896" fill-rule="evenodd" d="m248.29 793.06c0-0.42-0.07-0.71-1.66-0.78l-2.29 0 -3.95 0 0 2.04 3.95 0 2.36 0c1.59-0.07 1.59-0.21 1.59-0.7l0-0.56zm-1.18 2.89l-2.78 0 -3.95 0 0 2.96 -0.28 0 -1.38 0 -0.34 0 0-8.25 5.96 0 2.57 0c1.95 0 3.4 0.7 3.4 2.32l0 0.85c0 1.27-1.11 2.11-3.19 2.11m6.17 2.96l0.35 0 0-8.25 -1.94 0 0 8.25 0.35 0 1.25 0z" id="path46"/>
        </g>
        <g id="g48">
          <path fill="#274896" fill-rule="evenodd" d="m219.32 793.98c0-1.2-0.77-1.62-2.36-1.69l-1.73 0 -1.73 0c-1.8 0.07-2.36 0.57-2.43 1.69l0 1.62c0.07 1.27 0.62 1.62 2.43 1.7l1.73 0 1.73 0c1.67 0 2.36-0.56 2.36-1.7l0-1.62zm-2.29 4.94l-1.8 0 -1.8 0c-1.52 0-2.57-0.35-3.32-0.92 -0.69-0.63-0.97-1.49-0.97-2.4l0-1.62c0-1.05 0.35-1.91 1.11-2.46 0.69-0.57 1.81-0.84 3.19-0.84l1.8 0 1.73 0c1.52 0 2.63 0.35 3.4 0.99 0.69 0.56 0.97 1.48 0.97 2.33l0 1.62c0 0.85-0.27 1.77-0.97 2.33 -0.69 0.64-1.73 0.99-3.32 0.99" id="path50"/>
        </g>
        <g id="g52">
          <path fill="#274896" fill-rule="evenodd" d="m205.18 792.99c0-0.42-0.34-0.7-1.66-0.7l-2.36 0 -4.02 0 0 1.77 4.02 0 2.22 0c1.94-0.14 1.73-0.35 1.8-0.71l0-0.36zm-8.04 4.31l4.02 0 2.42 0c1.04 0 1.39-0.28 1.39-0.71l0-0.29c0-0.42-0.28-0.63-1.39-0.7l-2.42 0 -4.02 0 0 1.7zm9.08-2.4c0.49 0.28 0.77 0.78 0.77 1.41l0 0.29c0 1.48-1.32 2.33-3.54 2.33l-2.29 0 -6.1 0 0-8.25 0.35 0 5.75 0 2.42 0c2.29 0 3.61 0.84 3.68 2.32l0 0.36c0 0.57-0.42 1.2-1.04 1.55" id="path54"/>
        </g>
        <g id="g56">
          <path fill="#274896" fill-rule="evenodd" d="m184.8 795.25l-3.88 0 -2.29 0c-1.73 0.07-1.59 0.21-1.66 0.7l0 0.56c0.07 0.5 0.07 0.71 1.67 0.78l2.29 0 3.88 0 0-2.05zm-6.44 3.67c-1.94 0-3.39-0.7-3.39-2.33l0-0.85c0-1.13 0.9-1.97 2.56-2.11l-4.09-2.96 3.05 0 3.67 2.96 0.76 0 3.88 0 0-2.96 2.08 0 0 8.25 -5.96 0 -2.56 0z" id="path58"/>
        </g>
        <g id="g60">
          <path fill="#274896" fill-rule="evenodd" d="m156.18 792.29l-3.6 0 -3.67 0c0.55 0.78 0.62 1.91 0.62 2.68l0 2.33 3.06 0 3.61 0 0-5.01zm2 6.63l-5.61 0 -4.99 0 0-4.09c0-1.26-0.34-2.11-1.18-2.54l-0.62 0 -0.35 0 0-4.44 1.94 0 0 2.82 5.2 0 4.71 0 0-2.82 1.59 0 0.35 0 0 4.44 -1.04 0 0 6.63z" id="path62"/>
        </g>
        <g id="g64">
          <path fill="#274896" fill-rule="evenodd" d="m173.44 798.92l0-8.25 -2.01 0 0 6.63 -6.86 0 0-3.46c0-0.98-0.35-1.83-0.97-2.4 -0.69-0.56-1.6-0.77-2.64-0.77l-0.76 0 0 0.35 0 1.27 0.35 0 0.42 0c1.18 0.07 1.53 0.35 1.6 1.55l0 5.08 10.88 0z" id="path66"/>
        </g>
        <g id="g68">
          <path fill="#274896" fill-rule="evenodd" d="m138.02 798.92l0.35 0 0-8.25 -2.01 0 0 8.25 0.35 0 1.32 0zm-4.99-5.85c-0.07-0.42-0.07-0.7-1.74-0.78l-2.21 0 -3.95 0 0 2.04 3.95 0 2.29 0c1.66-0.07 1.59-0.21 1.66-0.7l0-0.57zm-1.18 2.89l-2.77 0 -3.95 0 0 2.97 -0.35 0 -1.38 0 -0.28 0 0-8.25 5.96 0 2.49 0c2.01 0 3.4 0.7 3.4 2.32l0 0.85c0 1.27-1.11 2.11-3.12 2.11" id="path70"/>
        </g>
        <g id="g72">
          <path fill="#274896" fill-rule="evenodd" d="m233.81 792.29l-3.68 0 -3.74 0c0.55 0.78 0.62 1.91 0.62 2.68l0 2.33 3.12 0 3.68 0 0-5.01zm1.94 6.63l-5.62 0 -5.05 0 0-4.09c0-1.27-0.35-2.11-1.18-2.54l-0.62 0 -0.34 0 0-4.44 1.59 0 0.35 0 0 2.82 5.26 0 4.72 0 0-2.82 1.94 0 0 4.44 -1.04 0 0 6.63z" id="path74"/>
        </g>
        <g id="g76">
          <path fill="#274896" fill-rule="evenodd" d="m21.76 816.89l-5.82 0 5.82 16.08 0.28 0.92 0.14 0 5.4-16.99 -5.82 0zm6.93 24.54l-6.93 0 -6.1 0 -15.11-36.73 10.81 0 2.08 5.29 8.32 0 8.32 0 1.8-5.29 12.2 0 -15.39 36.73z" id="path78"/>
        </g>
        <g id="g80">
          <path fill="#274896" fill-rule="evenodd" d="m57.04 804.69l-10.67 0 0 36.73 10.67 0 0-15.02 0.08 0 11.99 15.02 12.75 0 -14.69-17.06 15.8-19.67 -13.45 0 -12.4 16.64 -0.08 0 0-16.64z" id="path82"/>
        </g>
        <g id="g84">
          <path fill="#274896" fill-rule="evenodd" d="m96.82 811.67l0 8.68 3.19 0c0.62 0 1.18-0.07 1.8-0.07 3.12-0.21 6.03-0.98 6.03-4.3 0-3.17-2.85-4.09-6.03-4.23 -0.62-0.07-1.25-0.07-1.87-0.07l-3.12 0zm0 22.77l3.05 0c0.7 0 1.32 0 1.94-0.07 2.7-0.14 4.99-0.85 4.99-3.6 0-2.47-2.29-3.45-4.99-3.81 -0.69-0.07-1.38-0.07-2.08-0.07l-2.91 0 0 7.55zm6.17-29.68c7.07 0 15.45 1.84 15.45 10.58 0 4.44-2.7 7.12-7.97 8.11l0 0.14c4.37 1.34 6.93 3.88 6.93 8.52 0 6.27-5.48 9.31-12.89 9.31l-2.7 0 -15.59 0 0-36.66 15.59 0 1.18 0z" id="path86"/>
        </g>
        <g id="g88">
          <path fill="#274896" fill-rule="evenodd" d="m192.4 816.54c-1.18-0.57-2.5-0.92-3.95-0.92l0 14.94c1.45 0 2.77-0.28 3.95-0.85 2.28-1.2 3.88-3.6 3.88-6.7 0-2.88-1.6-5.21-3.88-6.48m-14.56-0.92c-1.45 0-2.77 0.35-3.88 0.92 -2.35 1.27-3.95 3.6-3.95 6.48 0 3.17 1.6 5.43 3.95 6.63 1.11 0.56 2.42 0.91 3.88 0.91l0-14.94zm29.39 7.4c0 8.89-6.24 13.68-14.83 14.8 -1.25 0.15-2.57 0.22-3.95 0.22l0 3.39 -10.61 0 0-3.39c-1.32 0-2.63-0.07-3.88-0.21 -8.67-1.12-14.9-5.92-14.9-14.8 0-8.73 6.24-13.6 14.9-14.73 1.25-0.14 2.56-0.21 3.88-0.21l0-3.38 10.61 0 0 3.38c1.38 0 2.7 0.08 3.95 0.21 8.59 1.13 14.83 6 14.83 14.73" id="path90"/>
        </g>
        <g id="g92">
          <path fill="#274896" fill-rule="evenodd" d="m230.23 834.79c6.52 0 9.09-5.35 9.09-11.77 0-5.99-2.56-11.7-9.09-11.7 -6.44 0-9.01 5.71-9.01 11.7 0 6.42 2.57 11.77 9.01 11.77m0-30.66c13.03 0 19.97 7.26 19.97 18.89 0 11.85-6.8 19.04-19.97 19.04 -13.1 0-19.96-7.19-19.96-19.04 0-11.63 7-18.89 19.96-18.89" id="path94"/>
        </g>
        <g id="g96">
          <path fill="#274896" fill-rule="evenodd" d="m268.77 824.64c-0.62-0.14-1.24-0.14-1.87-0.14l-2.78 0 0 9.94 2.78 0c0.63 0 1.25-0.07 1.87-0.14 2.71-0.35 4.64-1.69 4.64-4.72 0-3.17-1.94-4.58-4.64-4.94m0 16.71c-0.83 0.07-1.73 0.07-2.63 0.07l-12.62 0 0-36.74 10.6 0 0 12.9 4.09 0 0.56 0c9.56 0.14 15.25 4.52 15.25 11.77 0 7.68-4.85 11.49-15.25 11.99" id="path98"/>
        </g>
        <g id="g100">
          <path fill="#274896" fill-rule="evenodd" d="m139.65 816.89l-5.82 0 5.82 15.93 0.35 1.06 0.07 0 5.41-16.99 -5.82 0zm10.19-12.2l12.06 0 -15.32 36.73 -6.93 0 -6.02 0 -15.19-36.73 10.81 0 2.15 5.29 8.24 0 8.32 0 1.87-5.29z" id="path102"/>
        </g>
        <g id="g104">
          <path fill="#274896" fill-rule="evenodd" d="m289.58 837.97c-0.14-0.14-0.28-0.21-0.48-0.21l-0.21 0 -0.49 0 0 1.27 0.49 0 0.21 0c0.21-0.06 0.35-0.14 0.49-0.21 0.07-0.14 0.13-0.28 0.13-0.42 0-0.14-0.07-0.28-0.13-0.43m0.9 0.5c0 0.14 0 0.28-0.07 0.5 -0.07 0.21-0.2 0.42-0.48 0.56 -0.22 0.14-0.49 0.21-0.84 0.28l-0.21 0 -1.25 0 0-4.3 0.77 0 0 1.62 0.07 0 0.63-0.92 0.42-0.7 0.97 0 -1.18 1.62c0.41 0 0.7 0.14 0.91 0.43 0.21 0.21 0.28 0.56 0.28 0.91m1.17-2.39c-0.27-0.5-0.69-0.85-1.17-1.13 -0.42-0.21-0.9-0.35-1.39-0.43l-0.21 0c-0.55 0-1.11 0.14-1.53 0.43 -0.48 0.28-0.9 0.71-1.17 1.13 -0.28 0.49-0.42 0.99-0.42 1.62 0 0.57 0.14 1.06 0.42 1.55 0.28 0.49 0.69 0.85 1.18 1.13 0.42 0.28 0.97 0.42 1.53 0.42l0.21 0c0.49 0 0.97-0.14 1.39-0.42 0.48-0.28 0.9-0.64 1.17-1.13 0.28-0.42 0.42-0.99 0.42-1.55 0-0.63-0.14-1.13-0.42-1.62m0.63 3.52c-0.35 0.64-0.83 1.06-1.39 1.41 -0.56 0.36-1.18 0.49-1.8 0.49 -0.07 0.07-0.14 0.07-0.21 0.07 -0.69-0.07-1.32-0.21-1.94-0.57 -0.55-0.35-1.04-0.77-1.38-1.41 -0.34-0.57-0.48-1.2-0.48-1.91 0-0.7 0.14-1.4 0.49-1.97 0.35-0.57 0.83-1.06 1.39-1.42 0.63-0.35 1.25-0.49 1.94-0.49l0.21 0c0.62 0 1.25 0.22 1.8 0.49 0.56 0.35 1.04 0.85 1.39 1.42 0.35 0.57 0.48 1.27 0.48 1.97 0 0.71-0.13 1.34-0.48 1.91" id="path106"/>
        </g>
      </g>
    </g>
  </g>
</svg>
