<svg xmlns="http://www.w3.org/2000/svg" width="26" height="24" viewBox="0 0 26 24">
    <path fill="#164CB5" d="M17.857 11.143c.238 0 .429.191.429.428v7.715c0 .237-.191.428-.429.428-.237 0-.428-.19-.428-.428V11.57c0-.237.19-.428.428-.428zm-5.143 0c.238 0 .429.191.429.428v7.715c0 .237-.191.428-.429.428-.237 0-.428-.19-.428-.428V11.57c0-.237.19-.428.428-.428zm-5.143 0c.238 0 .429.191.429.428v7.715c0 .237-.191.428-.429.428-.237 0-.428-.19-.428-.428V11.57c0-.237.191-.428.428-.428zM16.165 0c.112 0 .217.05.294.129l5.134 5.142c.38.382-.222.99-.606.607L15.853.735C15.577.463 15.73 0 16.165 0zM9.263 0c-.111 0-.216.05-.294.129L3.835 5.27c-.379.382.223.99.606.607L9.575.735C9.853.463 9.701 0 9.265 0h-.002zM1.571 6.857c-.354 0-.683.137-.93.37-.249.234-.417.6-.348.99l2.571 14.571c.053.3.174.591.388.823.215.23.537.389.892.389h17.143c.354 0 .677-.16.891-.39.214-.231.334-.521.387-.823l2.572-14.571c.068-.389-.1-.755-.348-.989-.25-.233-.577-.37-.932-.37H1.571zm0 .857h22.286c.429 0 .484.176.436.355L21.72 22.641c-.103.38-.197.502-.435.502H4.143c-.313 0-.352-.189-.436-.502L1.136 8.069c-.053-.283.221-.355.435-.355z"/>
</svg>
