<svg xmlns="http://www.w3.org/2000/svg" width="18" height="18" viewBox="0 0 18 18">
    <g fill="none" fill-rule="evenodd">
        <g fill="#28293C" fill-rule="nonzero">
            <g>
                <g>
                    <path d="M17.886 3.106c-.149-.144-.387-.14-.53.007L9.857 10.61c-.336.326.193.867.53.53l7.498-7.497c.152-.147.152-.39 0-.537zM8.139 12.85c-.148-.144-.386-.14-.53.008L.111 20.355c-.344.335.192.88.53.53L8.14 13.39c.153-.148.153-.392 0-.539zM.642 3.114c-.329-.33-.869.189-.531.53l17.245 17.241c.345.351.88-.183.53-.53L.642 3.113z" transform="translate(-317 -19) translate(317 16)"/>
                </g>
            </g>
        </g>
    </g>
</svg>
