<svg xmlns="http://www.w3.org/2000/svg" width="17" height="17" viewBox="0 0 17 17">
    <path fill="#2F3042" fill-opacity=".7" fill-rule="evenodd" d="M8.675 2.267c-3.502 0-6.34 2.838-6.34 6.34 0 1.217.341 2.351.934 3.316l.19.31-1.192 2.784 2.783-1.193.311.19c.964.593 2.098.935 3.314.935 3.503 0 6.342-2.839 6.342-6.341 0-3.503-2.84-6.341-6.342-6.341zM.08 8.46C.079 3.788 3.867 0 8.539 0 13.212 0 17 3.788 17 8.46c0 4.673-3.788 8.461-8.46 8.461-1.476 0-2.865-.378-4.074-1.043l-2.317.993c-1.276.547-2.567-.744-2.02-2.02l.993-2.317C.457 11.324.079 9.936.079 8.46zm5.588-2.086c0-.391.38-.708.85-.708h2.55c.469 0 .85.317.85.708 0 .391-.381.708-.85.708h-2.55c-.47 0-.85-.317-.85-.708zm0 4.25c0-.391.317-.708.708-.708h5.667c.39 0 .708.317.708.708 0 .391-.317.708-.708.708H6.375c-.391 0-.708-.317-.708-.708z"/>
</svg>
