<svg xmlns="http://www.w3.org/2000/svg" width="17" height="18" viewBox="0 0 17 18">
    <path fill="#2F3042" fill-opacity=".7" fill-rule="evenodd" d="M6.813.793c.886-1.057 2.488-1.057 3.374 0l.377.445c.181.22.465.31.735.25l.566-.144c1.325-.325 2.621.642 2.728 2.023l.047.597c.022.28.197.528.454.634l.537.227c1.259.536 1.754 2.091 1.042 3.277l-.303.505c-.146.242-.146.544 0 .786l.303.505c.712 1.186.217 2.741-1.042 3.277l-.537.227c-.257.106-.432.355-.454.634l-.047.597c-.107 1.381-1.403 2.348-2.728 2.023l-.566-.143c-.27-.06-.554.03-.735.249l-.377.445c-.886 1.057-2.488 1.057-3.374 0l-.377-.445c-.181-.22-.464-.31-.735-.25l-.566.144c-1.325.325-2.62-.642-2.728-2.023l-.047-.597c-.022-.28-.197-.528-.454-.634l-.536-.227C.11 12.64-.385 11.084.327 9.898l.303-.505c.146-.242.146-.544 0-.786l-.303-.505C-.385 6.916.11 5.36 1.37 4.825l.536-.227c.257-.106.432-.355.454-.634l.047-.597C2.515 1.986 3.81 1.02 5.135 1.344l.566.143c.27.06.554-.03.735-.249l.377-.445zm2.25.981c-.296-.355-.83-.355-1.125 0l-.378.446c-.541.65-1.393.928-2.204.732l-.565-.136c-.441-.105-.874.212-.91.672l-.046.59c-.065.852-.592 1.592-1.362 1.917l-.536.226c-.42.174-.585.695-.347 1.088l.302.506c.435.732.435 1.638 0 2.37l-.302.506c-.238.393-.073.914.347 1.088l.536.226c.77.325 1.297 1.065 1.362 1.918l.046.589c.036.46.469.777.91.672l.565-.136c.81-.196 1.663.083 2.204.732l.378.446c.295.355.83.355 1.124 0l.378-.446c.542-.65 1.393-.928 2.204-.732l.565.136c.441.105.873-.212.91-.672l.046-.59c.065-.852.592-1.592 1.362-1.917l.536-.226c.42-.174.585-.695.347-1.088l-.302-.506c-.435-.732-.435-1.638 0-2.37l.302-.506c.238-.393.073-.914-.347-1.088l-.536-.226c-.77-.325-1.297-1.065-1.362-1.918l-.046-.589c-.037-.46-.469-.777-.91-.672l-.565.136c-.811.196-1.662-.083-2.204-.732l-.378-.446zM7.542 6.2c.29.294.29.778 0 1.072l-.74.755c-.289.294-.757.294-1.046 0-.29-.294-.29-.778 0-1.072l.74-.755c.29-.295.757-.295 1.046 0zm3.7 0c.29.294.29.778 0 1.072l-4.44 4.53c-.289.295-.757.295-1.046 0-.29-.294-.29-.778 0-1.072l4.44-4.53c.289-.295.757-.295 1.046 0zm0 3.775c.29.294.29.778 0 1.072l-.74.755c-.29.295-.757.295-1.046 0-.29-.294-.29-.778 0-1.072l.74-.755c.289-.294.757-.294 1.046 0z"/>
</svg>
