<svg width="17" height="16" viewBox="0 0 17 16">
    <path fill="#2F3042" fill-opacity=".7" fill-rule="evenodd" d="M4.713 1.455c-.334 0-.625.227-.706.55l-1.68 6.722h3.432c.838 0 1.35.672 1.534 1.204.198.57.74.978 1.375.978.636 0 1.177-.408 1.375-.978.184-.532.696-1.204 1.534-1.204h3.432l-1.68-6.722c-.081-.323-.372-.55-.706-.55h-7.91zm10.5 8.727H11.58l-.039.027c-.043.038-.092.108-.122.198-.394 1.138-1.476 1.957-2.75 1.957s-2.356-.82-2.75-1.957c-.03-.09-.08-.16-.122-.198l-.04-.027H2.124v3.636c0 .402.325.727.727.727h11.636c.402 0 .727-.325.727-.727v-3.636zM2.596 1.652C2.839.682 3.712 0 4.713 0h7.91c1.001 0 1.874.681 2.117 1.652l1.928 7.713v4.453c0 1.205-.977 2.182-2.182 2.182H2.85c-1.205 0-2.182-.977-2.182-2.182V9.365l1.928-7.713zm2.436 1.984c0-.401.325-.727.727-.727h5.818c.402 0 .727.326.727.727 0 .402-.325.728-.727.728H5.76c-.402 0-.727-.326-.727-.728zm-.728 2.91c0-.402.326-.728.728-.728h7.272c.402 0 .728.326.728.727 0 .402-.326.728-.728.728H5.032c-.402 0-.728-.326-.728-.728z"/>
</svg>
