<?xml version="1.0" encoding="UTF-8"?>
<svg width="18px" height="14px" viewBox="0 0 18 14" version="1.1" xmlns="http://www.w3.org/2000/svg" xmlns:xlink="http://www.w3.org/1999/xlink">
    <!-- Generator: Sketch 58 (84663) - https://sketch.com -->
    <title>Fill 978</title>
    <desc>Created with Sketch.</desc>
    <g id="Design" stroke="none" stroke-width="1" fill="none" fill-rule="evenodd">
        <g id="81-mini-icons" transform="translate(-90.000000, -457.000000)" fill="#000000">
            <g id="icon-" transform="translate(87.000000, 452.000000)">
                <path d="M3,7.25 C3,6.00725 4.00725,5 5.25,5 L18.75,5 C19.99275,5 21,6.00725 21,7.25 L21,16.25 C21,17.49275 19.99275,18.5 18.75,18.5 L5.25,18.5 C4.00725,18.5 3,17.49275 3,16.25 L3,7.25 Z M5.25,6.5 C4.836,6.5 4.5,6.836 4.5,7.25 L4.5,8 L19.5,8 L19.5,7.25 C19.5,6.836 19.164,6.5 18.75,6.5 L5.25,6.5 Z M19.5,9.5 L4.5,9.5 L4.5,16.25 C4.5,16.664 4.836,17 5.25,17 L18.75,17 C19.164,17 19.5,16.664 19.5,16.25 L19.5,9.5 Z M6,14.75 C6,14.336 6.336,14 6.75,14 L11.25,14 C11.664,14 12,14.336 12,14.75 C12,15.164 11.664,15.5 11.25,15.5 L6.75,15.5 C6.336,15.5 6,15.164 6,14.75 L6,14.75 Z" id="Fill-978"></path>
            </g>
        </g>
    </g>
</svg>