          <svg class="header__item-icon" width="17px" height="18px" viewBox="0 0 17 18" version="1.1" xmlns="http://www.w3.org/2000/svg" xmlns:xlink="http://www.w3.org/1999/xlink">
              <g id="Design" stroke="none" stroke-width="1" fill="none" fill-rule="evenodd">
                  <g class="header__item-icon-fill" id="81-mini-icons" transform="translate(-149.000000, -455.000000)">
                      <g id="icon-" transform="translate(145.000000, 452.000000)">
                          <path d="M12.0632376,4.5 C10.8204876,4.5 9.81323761,5.505 9.81323761,6.75 L14.3132376,6.75 C14.3132376,5.505 13.3059876,4.5 12.0632376,4.5 Z M14.3132376,8.25 L14.3132376,9 C14.3132376,9.4125 14.6492376,9.75 15.0632376,9.75 C15.4772376,9.75 15.8132376,9.4125 15.8132376,9 L15.8132376,8.25 L16.7297376,8.25 C17.1099876,8.25 17.4294876,8.535 17.4744876,8.91 L18.6212376,18.66 C18.6737376,19.11 18.3257376,19.5 17.8764876,19.5 L6.24998761,19.5 C5.80073761,19.5 5.45273761,19.11 5.50523761,18.66 L6.65198761,8.91 C6.69698761,8.535 7.01648761,8.25 7.39673761,8.25 L8.31323761,8.25 L8.31323761,9 C8.31323761,9.4125 8.64923761,9.75 9.06323761,9.75 C9.47723761,9.75 9.81323761,9.4125 9.81323761,9 L9.81323761,8.25 L14.3132376,8.25 Z M8.31323761,6.75 L7.39673761,6.75 C6.25598761,6.75 5.29598761,7.605 5.16248761,8.7375 L4.01573761,18.4875 C3.85823761,19.8225 4.90298761,21 6.24998761,21 L17.8764876,21 C19.2234876,21 20.2682376,19.8225 20.1107376,18.4875 L18.9639876,8.7375 C18.8304876,7.605 17.8704876,6.75 16.7297376,6.75 L15.8132376,6.75 C15.8132376,4.68 14.1339876,3 12.0632376,3 C9.99173761,3 8.31323761,4.68 8.31323761,6.75 L8.31323761,6.75 Z" id="Fill-929"></path>
                      </g>
                  </g>
              </g>
          </svg>
