<?xml version="1.0" encoding="UTF-8"?>
<svg width="18px" height="18px" viewBox="0 0 18 18" version="1.1" xmlns="http://www.w3.org/2000/svg" xmlns:xlink="http://www.w3.org/1999/xlink">
    <!-- Generator: Sketch 58 (84663) - https://sketch.com -->
    <title>Fill 951</title>
    <desc>Created with Sketch.</desc>
    <g id="Design" stroke="none" stroke-width="1" fill="none" fill-rule="evenodd">
        <g id="81-mini-icons" transform="translate(-438.000000, -397.000000)" fill="#000000">
            <g id="icon-" transform="translate(435.000000, 394.000000)">
                <path d="M12.0418138,4.62876112 C7.99352807,4.62876112 4.71238879,7.9099004 4.71238879,11.9581862 C4.71238879,13.363807 5.10736336,14.6749597 5.79225741,15.7898467 L6.01295455,16.1489885 L4.63420826,19.3657917 L7.85101147,17.9870455 L8.21096768,18.2077426 C9.32504029,18.8926366 10.636193,19.2876112 12.0418138,19.2876112 C16.0900996,19.2876112 19.3712389,16.0064719 19.3712389,11.9581862 C19.3712389,7.9099004 16.0900996,4.62876112 12.0418138,4.62876112 Z M3.08362767,11.9581862 C3.08362767,7.01082426 7.09445193,3 12.0418138,3 C16.9891757,3 21,7.01082426 21,11.9581862 C21,16.9055481 16.9891757,20.9163723 12.0418138,20.9163723 C10.4798319,20.9163723 9.00906063,20.5156971 7.72885439,19.8120723 L5.27594014,20.8634376 C3.92406841,21.4424622 2.55753783,20.0759316 3.13656241,18.7240599 L4.18792771,16.2711456 C3.48430291,14.9909394 3.08362767,13.5201681 3.08362767,11.9581862 Z M7.96991103,10.329425 C7.96991103,9.87988697 8.33475352,9.51504448 8.78429159,9.51504448 L11.2274333,9.51504448 C11.6769713,9.51504448 12.0418138,9.87988697 12.0418138,10.329425 C12.0418138,10.7789631 11.6769713,11.1438056 11.2274333,11.1438056 L8.78429159,11.1438056 C8.33475352,11.1438056 7.96991103,10.7789631 7.96991103,10.329425 Z M7.96991103,13.5869473 C7.96991103,13.1374092 8.33475352,12.7725667 8.78429159,12.7725667 L15.2993361,12.7725667 C15.7488741,12.7725667 16.1137166,13.1374092 16.1137166,13.5869473 C16.1137166,14.0364854 15.7488741,14.4013278 15.2993361,14.4013278 L8.78429159,14.4013278 C8.33475352,14.4013278 7.96991103,14.0364854 7.96991103,13.5869473 L7.96991103,13.5869473 Z" id="Fill-951"></path>
            </g>
        </g>
    </g>
</svg>