<?xml version="1.0" encoding="UTF-8"?>
<svg width="17px" height="18px" viewBox="0 0 17 18" version="1.1" xmlns="http://www.w3.org/2000/svg" xmlns:xlink="http://www.w3.org/1999/xlink">
    <!-- Generator: Sketch 58 (84663) - https://sketch.com -->
    <title>Fill 1004</title>
    <desc>Created with Sketch.</desc>
    <g id="Design" stroke="none" stroke-width="1" fill="none" fill-rule="evenodd">
        <g id="81-mini-icons" transform="translate(-381.000000, -339.000000)" fill="#000000">
            <g id="icon-" transform="translate(377.000000, 336.000000)">
                <path d="M11.3384113,3.2851565 C12.0304679,2.90494783 12.8676951,2.90494783 13.5597516,3.2851565 L19.7045382,6.66478909 C19.9226781,6.78461243 20.117007,6.937464 20.2821481,7.11489471 C20.6723421,7.53504449 20.898163,8.09268386 20.898163,8.68411957 L20.898163,15.3158804 C20.898163,16.1569481 20.4403764,16.9304231 19.7045382,17.3352109 L13.5597516,20.7148435 C12.8676951,21.0950522 12.0304679,21.0950522 11.3384113,20.7148435 L5.19362478,17.3352109 C4.4577866,16.9304231 4,16.1569481 4,15.3158804 L4,8.68411957 C4,8.09268386 4.22582091,7.53504449 4.61601485,7.11489471 C4.78115599,6.937464 4.97548486,6.78461243 5.19362478,6.66478909 L11.3384113,3.2851565 Z M12.8193049,4.63086475 C12.5888754,4.50412853 12.3092876,4.50412853 12.0788581,4.63086475 L6.64302631,7.6203034 L12.4490815,11.1043974 L18.2551367,7.6210715 L12.8193049,4.63086475 Z M19.3619663,8.74787173 L13.2171798,12.4347436 L13.2171798,19.1502272 L18.9640914,15.9895027 C19.2098829,15.8543174 19.3619663,15.5962363 19.3619663,15.3158804 L19.3619663,8.74787173 Z M11.6809832,19.1502272 L11.6809832,12.4347436 L5.53619663,8.74787173 L5.53619663,15.3158804 C5.53619663,15.5962363 5.6882801,15.8543174 5.93407156,15.9895027 L11.6809832,19.1502272 L11.6809832,19.1502272 Z" id="Fill-1004"></path>
            </g>
        </g>
    </g>
</svg>