<?xml version="1.0" encoding="UTF-8"?>
<svg width="15px" height="19px" viewBox="0 0 15 19" version="1.1" xmlns="http://www.w3.org/2000/svg" xmlns:xlink="http://www.w3.org/1999/xlink">
    <!-- Generator: Sketch 58 (84663) - https://sketch.com -->
    <title>Fill 1125</title>
    <desc>Created with Sketch.</desc>
    <g id="Design" stroke="none" stroke-width="1" fill="none" fill-rule="evenodd">
        <g id="81-mini-icons" transform="translate(-150.000000, -396.000000)" fill="#000000">
            <g id="icon-" transform="translate(145.000000, 394.000000)">
                <path d="M7.375,3.58333333 C6.938,3.58333333 6.58333333,3.938 6.58333333,4.375 L6.58333333,18.625 C6.58333333,19.062 6.938,19.4166667 7.375,19.4166667 L16.875,19.4166667 C17.312,19.4166667 17.6666667,19.062 17.6666667,18.625 L17.6666667,9.125 L14.5,9.125 C13.1882083,9.125 12.125,8.06179167 12.125,6.75 L12.125,3.58333333 L7.375,3.58333333 Z M13.7083333,4.70275 L16.54725,7.54166667 L14.5,7.54166667 C14.063,7.54166667 13.7083333,7.187 13.7083333,6.75 L13.7083333,4.70275 Z M5,4.375 C5,3.06320833 6.06320833,2 7.375,2 L12.9166667,2 C13.1264583,2 13.3283333,2.083125 13.476375,2.23195833 L19.0180417,7.773625 C19.166875,7.92166667 19.25,8.12354167 19.25,8.33333333 L19.25,18.625 C19.25,19.9367917 18.1867917,21 16.875,21 L7.375,21 C6.06320833,21 5,19.9367917 5,18.625 L5,4.375 Z M8.95833333,13.0833333 C8.95833333,12.6463333 9.313,12.2916667 9.75,12.2916667 L12.125,12.2916667 C12.562,12.2916667 12.9166667,12.6463333 12.9166667,13.0833333 C12.9166667,13.5203333 12.562,13.875 12.125,13.875 L9.75,13.875 C9.313,13.875 8.95833333,13.5203333 8.95833333,13.0833333 Z M8.95833333,16.25 C8.95833333,15.813 9.313,15.4583333 9.75,15.4583333 L14.5,15.4583333 C14.937,15.4583333 15.2916667,15.813 15.2916667,16.25 C15.2916667,16.687 14.937,17.0416667 14.5,17.0416667 L9.75,17.0416667 C9.313,17.0416667 8.95833333,16.687 8.95833333,16.25 L8.95833333,16.25 Z" id="Fill-1125"></path>
            </g>
        </g>
    </g>
</svg>