<?xml version="1.0" encoding="UTF-8"?>
<svg width="18px" height="16px" viewBox="0 0 18 16" version="1.1" xmlns="http://www.w3.org/2000/svg" xmlns:xlink="http://www.w3.org/1999/xlink">
    <!-- Generator: Sketch 58 (84663) - https://sketch.com -->
    <title>Fill 1161</title>
    <desc>Created with Sketch.</desc>
    <g id="Design" stroke="none" stroke-width="1" fill="none" fill-rule="evenodd">
        <g id="81-mini-icons" transform="translate(-438.000000, -282.000000)" fill="#000000">
            <g id="icon-" transform="translate(435.000000, 278.000000)">
                <path d="M18.3071295,6.8251104 C16.8596918,5.31349427 14.5547963,5.18021027 12.9568068,6.51544458 L12,7.31514857 L11.0431932,6.51544458 C9.44520369,5.18021027 7.14030818,5.31349427 5.69287048,6.8251104 C4.218685,8.3646603 4.12927095,10.7980909 5.51098549,12.368767 C6.71310772,13.7367237 8.11392783,15.2515323 9.3748952,16.419164 C10.0069073,17.004177 10.5861881,17.4862341 11.0760548,17.8174488 C11.6048969,18.174203 11.9006511,18.2643891 12,18.2643891 C12.0993489,18.2643891 12.3951031,18.174203 12.9239452,17.8174488 C13.4138119,17.4862341 13.9930927,17.004177 14.6251048,16.419164 C15.8860722,15.2515323 17.2868923,13.7367237 18.4890145,12.368767 C19.8699648,10.7980909 19.781315,8.3646603 18.3071295,6.8251104 Z M12.0015284,5.26880024 C14.2086035,3.42596938 17.3892981,3.60953417 19.3877403,5.6957879 C21.4106377,7.80917728 21.5787667,11.2147032 19.6147145,13.4486068 C18.4003647,14.8301314 16.9582765,16.3920283 15.6392283,17.6139313 C14.9812326,18.2236856 14.3362286,18.7640046 13.7531268,19.1582698 C13.2097645,19.5253994 12.5838661,19.8606047 12,19.8606047 C11.4161339,19.8606047 10.7902355,19.5253994 10.2468732,19.1582698 C9.66377136,18.7640046 9.01876745,18.2236856 8.36077175,17.6139313 C7.04172346,16.3920283 5.59963532,14.8301314 4.38528553,13.4486068 C2.42123333,11.2147032 2.58936231,7.80917728 4.61225966,5.6957879 C6.61070189,3.60953417 9.79139655,3.42596938 11.9984716,5.26880024 L12,5.27039645 L12.0015284,5.26880024 L12.0015284,5.26880024 Z" id="Fill-1161"></path>
            </g>
        </g>
    </g>
</svg>