<?xml version="1.0" encoding="UTF-8"?>
<svg width="18px" height="18px" viewBox="0 0 18 18" version="1.1" xmlns="http://www.w3.org/2000/svg" xmlns:xlink="http://www.w3.org/1999/xlink">
    <!-- Generator: Sketch 58 (84663) - https://sketch.com -->
    <title>Shape</title>
    <desc>Created with Sketch.</desc>
    <g id="Design" stroke="none" stroke-width="1" fill="none" fill-rule="evenodd">
        <g id="81-mini-icons" transform="translate(-438.000000, -513.000000)" fill="#141124" fill-rule="nonzero">
            <g id="icon-" transform="translate(435.000000, 510.000000)">
                <path d="M12,3 C16.9705627,3 21,7.02943725 21,12 C21,16.9705627 16.9705627,21 12,21 C7.02943725,21 3,16.9705627 3,12 C3,7.02943725 7.02943725,3 12,3 Z M12,8.07692308 C10.6260336,8.07692308 9.46153846,9.20236214 9.46153846,10.7694175 C9.46153846,11.6812619 9.75684694,12.2753026 10.3850691,12.8688456 C10.6109005,13.0558734 10.7866321,13.2719416 10.9123417,13.510266 C11.163779,13.9869489 11.1924433,14.4791942 11.0950488,14.9291059 C11.075114,15.0211939 11.0531914,15.0944755 11.0531134,15.0863986 C10.8351124,15.896024 10.2713483,16.2433995 9.03408731,16.6660133 L9.03408731,16.6660133 L8.62288925,16.8048634 C8.46308541,16.8590851 8.33831318,16.9027854 8.21900227,16.9468222 C7.63244308,17.1633171 7.21148798,17.3844601 6.90680184,17.6601909 C8.25634769,18.8763446 10.0418678,19.6153846 12,19.6153846 C13.9576527,19.6153846 15.7427779,18.8767065 17.0918561,17.6628697 C16.7903429,17.3936956 16.3717892,17.1804549 15.7782835,16.9668294 C15.6749624,16.9296402 15.5668139,16.8923149 15.429635,16.8461681 L15.429635,16.8461681 L15.0738063,16.7270381 C13.7857631,16.2924799 13.2059368,15.9411974 12.9564297,15.118691 C12.9406702,15.0697736 12.9224686,15.0000969 12.9058326,14.9123227 C12.8282323,14.5028903 12.8457668,14.0591879 13.0330557,13.6224733 C13.1548839,13.3383981 13.3421182,13.0834856 13.5763702,12.8883423 C14.2361645,12.2922329 14.5384615,11.6821383 14.5384615,10.7694175 C14.5384615,9.22951895 13.3566975,8.07692308 12,8.07692308 Z M12,4.38461538 C7.79413921,4.38461538 4.38461538,7.79413921 4.38461538,12 C4.38461538,13.7477719 4.97339589,15.3580267 5.96343155,16.643239 C6.4158192,16.2277735 6.9929106,15.9234461 7.73956498,15.6478612 C7.8721444,15.5989271 8.00760298,15.551484 8.17799909,15.4936684 L8.17799909,15.4936684 L8.58652988,15.3557262 C9.3839776,15.0833404 9.66695542,14.9089775 9.73527834,14.6662908 C9.73293847,14.6726187 9.73636446,14.6611665 9.74177838,14.636157 C9.77614379,14.4774068 9.76610308,14.3049797 9.68765486,14.1562551 C9.64712452,14.0794164 9.58753521,14.0061492 9.46885954,13.9060413 C8.54653931,13.0374677 8.07692308,12.0927906 8.07692308,10.7694175 C8.07692308,8.42689119 9.87170173,6.69230769 12,6.69230769 C14.113762,6.69230769 15.9230769,8.45696539 15.9230769,10.7694175 C15.9230769,12.0967159 15.4409251,13.0697927 14.4844945,13.9332157 C14.3994922,14.0042691 14.3427796,14.0814813 14.3055856,14.168209 C14.242525,14.3152517 14.2355218,14.4924663 14.2662294,14.6544848 C14.2716086,14.6828667 14.2754222,14.6974654 14.2778577,14.7053523 C14.3488344,14.9392303 14.6539949,15.1241091 15.5164337,15.4150774 L15.5164337,15.4150774 L15.8711077,15.5338185 C16.0167006,15.5827957 16.133373,15.6230628 16.2472085,15.6640366 C17.0068127,15.9374473 17.5840747,16.2336595 18.0357952,16.6431504 C19.0262971,15.3588662 19.6153846,13.7482275 19.6153846,12 C19.6153846,7.79413921 16.2058608,4.38461538 12,4.38461538 Z" id="Shape"></path>
            </g>
        </g>
    </g>
</svg>