<?xml version="1.0" encoding="UTF-8"?>
<svg width="14px" height="18px" viewBox="0 0 14 18" version="1.1" xmlns="http://www.w3.org/2000/svg" xmlns:xlink="http://www.w3.org/1999/xlink">
    <!-- Generator: Sketch 58 (84663) - https://sketch.com -->
    <title>Fill 1100</title>
    <desc>Created with Sketch.</desc>
    <g id="Design" stroke="none" stroke-width="1" fill="none" fill-rule="evenodd">
        <g id="81-mini-icons" transform="translate(-498.000000, -455.000000)" fill="#000000">
            <g id="icon-" transform="translate(493.000000, 452.000000)">
                <path d="M11.8340013,4.51866695 C8.89841806,4.51866695 6.51866695,6.89538072 6.51866695,9.83400127 C6.51866695,11.982915 7.47618646,14.0710821 8.66226534,15.8099557 C9.81417422,17.5108627 11.1354145,18.8169163 11.8340013,19.4547564 C12.5325881,18.8169163 13.8538283,17.5108627 15.0057372,15.8099557 C16.1918161,14.0710821 17.1493356,11.982915 17.1493356,9.83400127 C17.1493356,6.89538072 14.7695845,4.51866695 11.8340013,4.51866695 Z M5,9.83400127 C5,6.0601139 8.05935457,3 11.8340013,3 C15.608648,3 18.6680025,6.0601139 18.6680025,9.83400127 C18.6680025,12.4157351 17.528243,14.8000422 16.2624341,16.6680025 C14.9897912,18.5359629 13.5394642,19.9559165 12.8059481,20.6241299 C12.2508753,21.12529 11.4171272,21.12529 10.8620544,20.6241299 C10.1285383,19.9559165 8.67821135,18.5359629 7.40556845,16.6680025 C6.13975954,14.8000422 5,12.4157351 5,9.83400127 Z M11.8340013,8.31533432 C10.9956971,8.31533432 10.3153343,8.99873444 10.3153343,9.83400127 C10.3153343,10.6692681 10.9956971,11.3526682 11.8340013,11.3526682 C12.6723054,11.3526682 13.3526682,10.6692681 13.3526682,9.83400127 C13.3526682,8.99873444 12.6723054,8.31533432 11.8340013,8.31533432 Z M8.79666737,9.83400127 C8.79666737,8.15587429 10.1566336,6.79666737 11.8340013,6.79666737 C13.5113689,6.79666737 14.8713352,8.15587429 14.8713352,9.83400127 C14.8713352,11.5121282 13.5113689,12.8713352 11.8340013,12.8713352 C10.1566336,12.8713352 8.79666737,11.5121282 8.79666737,9.83400127 L8.79666737,9.83400127 Z" id="Fill-1100"></path>
            </g>
        </g>
    </g>
</svg>