<?xml version="1.0" encoding="UTF-8"?>
<svg width="17px" height="17px" viewBox="0 0 17 17" version="1.1" xmlns="http://www.w3.org/2000/svg" xmlns:xlink="http://www.w3.org/1999/xlink">
    <!-- Generator: Sketch 58 (84663) - https://sketch.com -->
    <title>Fill 955</title>
    <desc>Created with Sketch.</desc>
    <g id="Design" stroke="none" stroke-width="1" fill="none" fill-rule="evenodd">
        <g id="81-mini-icons" transform="translate(-554.000000, -281.000000)" fill="#000000">
            <g id="icon-" transform="translate(551.000000, 278.000000)">
                <path d="M5.25805764,4.55178341 C4.80648867,4.55178341 4.52018463,4.90403824 4.55509976,5.24853416 C5.24486748,12.213714 10.786286,17.7551325 17.7514658,18.4449002 C18.0959618,18.4798154 18.4482166,18.1935113 18.4482166,17.7419424 L18.4482166,14.9805438 C18.4482166,14.6469104 18.2348464,14.3505197 17.9175067,14.2449985 L15.2329214,13.3496194 C14.9543763,13.2572883 14.6471231,13.3294462 14.4391842,13.5373852 L14.0093402,13.9672292 C13.4956999,14.4808695 12.6763582,14.5794078 12.0564207,14.154995 C10.5884336,13.1509912 9.73417688,12.3021656 8.82250413,10.9303891 C8.41050563,10.3096757 8.51835458,9.50430015 9.02346008,8.99997054 L9.46261478,8.56081584 C9.67055376,8.35287686 9.74271168,8.04562375 9.64960468,7.76707862 L8.75500155,5.08249333 C8.64948028,4.76515362 8.35308964,4.55178341 8.01945621,4.55178341 L5.25805764,4.55178341 Z M3.01107527,5.40216071 C2.87607011,4.04124667 3.99568184,3 5.25805764,3 L8.01945621,3 C9.0211324,3 9.91030429,3.64088655 10.2268681,4.59135388 L11.1222471,7.27593918 C11.4007923,8.11235043 11.1835426,9.03488567 10.5597256,9.6579267 L10.127554,10.0900984 C10.9112046,11.2663502 11.6157143,11.9724117 12.9176605,12.8646871 L13.3420733,12.4402744 C13.9651143,11.8164574 14.8876496,11.5992077 15.7240608,11.8777529 L18.4086461,12.7731319 C19.3591135,13.0896957 20,13.9788676 20,14.9805438 L20,17.7419424 C20,19.0043182 18.9587533,20.1239299 17.5978393,19.9889247 C9.89711413,19.2262232 3.77377681,13.1028859 3.01107527,5.40216071 Z M13.7928664,3.7758917 C13.7928664,3.34759948 14.1404659,3 14.5687581,3 C17.5683554,3 20,5.4316446 20,8.43124192 C20,8.85953414 19.6524005,9.20713362 19.2241083,9.20713362 C18.7958161,9.20713362 18.4482166,8.85953414 18.4482166,8.43124192 C18.4482166,6.28900493 16.7109951,4.55178341 14.5687581,4.55178341 C14.1404659,4.55178341 13.7928664,4.20418392 13.7928664,3.7758917 Z M13.7928664,6.87945852 C13.7928664,6.4511663 14.1404659,6.10356681 14.5687581,6.10356681 C15.8544106,6.10356681 16.8964332,7.14558937 16.8964332,8.43124192 C16.8964332,8.85953414 16.5488337,9.20713362 16.1205415,9.20713362 C15.6922493,9.20713362 15.3446498,8.85953414 15.3446498,8.43124192 C15.3446498,8.0029497 14.9970503,7.65535022 14.5687581,7.65535022 C14.1404659,7.65535022 13.7928664,7.30775074 13.7928664,6.87945852 L13.7928664,6.87945852 Z" id="Fill-955"></path>
            </g>
        </g>
    </g>
</svg>