<?xml version="1.0" encoding="UTF-8"?>
<svg width="12px" height="18px" viewBox="0 0 12 18" version="1.1" xmlns="http://www.w3.org/2000/svg" xmlns:xlink="http://www.w3.org/1999/xlink">
    <!-- Generator: Sketch 58 (84663) - https://sketch.com -->
    <title>Fill 1170</title>
    <desc>Created with Sketch.</desc>
    <g id="Design" stroke="none" stroke-width="1" fill="none" fill-rule="evenodd">
        <g id="81-mini-icons" transform="translate(-209.000000, -281.000000)" fill="#000000">
            <g id="icon-" transform="translate(203.000000, 278.000000)">
                <path d="M12.7452396,3.52242405 C13.8159622,2.31747772 15.7825327,3.36902541 15.3760263,4.9290896 L14.0514291,10.0050507 L16.2442627,10.8824909 C17.2313829,11.2774924 17.5274423,12.5315263 16.8218085,13.3261313 L10.4642018,20.4775759 C9.3934793,21.6825223 7.42690871,20.6309746 7.83341511,19.0709104 L9.15801239,13.9949493 L6.9651788,13.1175091 C5.97805854,12.7232746 5.68199916,11.4684737 6.38763291,10.6738687 L12.7452396,3.52242405 Z M13.8911275,4.54175803 L7.53428776,11.6932027 L10.9834562,13.0730235 L9.31831397,19.458242 L15.6751537,12.3067973 L12.2259852,10.9269765 L13.8911275,4.54175803 L13.8911275,4.54175803 Z" id="Fill-1170"></path>
            </g>
        </g>
    </g>
</svg>