<?xml version="1.0" encoding="UTF-8"?>
<svg width="18px" height="18px" viewBox="0 0 18 18" version="1.1" xmlns="http://www.w3.org/2000/svg" xmlns:xlink="http://www.w3.org/1999/xlink">
    <!-- Generator: Sketch 58 (84663) - https://sketch.com -->
    <title>Shape</title>
    <desc>Created with Sketch.</desc>
    <g id="Design" stroke="none" stroke-width="1" fill="none" fill-rule="evenodd">
        <g id="81-mini-icons" transform="translate(-554.000000, -455.000000)" fill="#141124" fill-rule="nonzero">
            <g id="icon-" transform="translate(551.000000, 452.000000)">
                <path d="M13.9459459,3 C17.8417924,3 21,6.15820758 21,10.0540541 C21,13.9499005 17.8417924,17.1081081 13.9459459,17.1081081 C12.2608637,17.1081081 10.7137825,16.5172555 9.50057567,15.5314234 L4.24572657,20.7862671 C3.96074938,21.0712443 3.49871008,21.0712443 3.21373289,20.7862671 C2.9287557,20.5012899 2.9287557,20.0392506 3.21373289,19.7542734 L3.21373289,19.7542734 L8.46857658,14.4994243 C7.48274455,13.2862175 6.89189189,11.7391363 6.89189189,10.0540541 C6.89189189,6.15820758 10.0500995,3 13.9459459,3 Z M13.9459459,4.45945946 C10.8561367,4.45945946 8.35135135,6.96424478 8.35135135,10.0540541 C8.35135135,13.1438633 10.8561367,15.6486486 13.9459459,15.6486486 C17.0357552,15.6486486 19.5405405,13.1438633 19.5405405,10.0540541 C19.5405405,6.96424478 17.0357552,4.45945946 13.9459459,4.45945946 Z" id="Shape" transform="translate(12.000000, 12.000000) scale(-1, 1) translate(-12.000000, -12.000000) "></path>
            </g>
        </g>
    </g>
</svg>