<?xml version="1.0" encoding="UTF-8"?>
<svg width="18px" height="18px" viewBox="0 0 18 18" version="1.1" xmlns="http://www.w3.org/2000/svg" xmlns:xlink="http://www.w3.org/1999/xlink">
    <!-- Generator: Sketch 58 (84663) - https://sketch.com -->
    <title>Shape</title>
    <desc>Created with Sketch.</desc>
    <g id="Design" stroke="none" stroke-width="1" fill="none" fill-rule="evenodd">
        <g id="81-mini-icons" transform="translate(-264.000000, -513.000000)" fill="#000000" fill-rule="nonzero">
            <g id="icon-" transform="translate(261.000000, 510.000000)">
                <path d="M12,3 C16.9705627,3 21,7.02943725 21,12 C21,16.9705627 16.9705627,21 12,21 C7.02943725,21 3,16.9705627 3,12 C3,7.02943725 7.02943725,3 12,3 Z M12,4.38461538 C7.79413921,4.38461538 4.38461538,7.79413921 4.38461538,12 C4.38461538,16.2058608 7.79413921,19.6153846 12,19.6153846 C16.2058608,19.6153846 19.6153846,16.2058608 19.6153846,12 C19.6153846,7.79413921 16.2058608,4.38461538 12,4.38461538 Z M12,7.43143212 C12.382351,7.43143212 12.6923077,7.74138883 12.6923077,8.12373981 L12.6923077,8.12373981 L12.6923077,12.6363137 L14.9406932,14.8846992 C15.2110562,15.1550622 15.2110562,15.5934072 14.9406932,15.8637702 C14.6703303,16.1341331 14.2319853,16.1341331 13.9616223,15.8637702 L13.9616223,15.8637702 L11.5104645,13.4126124 C11.3806317,13.2827795 11.3076923,13.1066883 11.3076923,12.9230769 L11.3076923,12.9230769 L11.3076923,8.12373981 C11.3076923,7.74138883 11.617649,7.43143212 12,7.43143212 Z" id="Shape"></path>
            </g>
        </g>
    </g>
</svg>